<svg viewBox="0 0 69 112" xmlns="http://www.w3.org/2000/svg">
<path d="m68.787 14.509c-1.98-4.41-3.9-8.79-6.0075-13.14-0.45-0.9375-1.5674-1.3274-2.4974-0.87745-0.9375 0.45-1.3276 1.5749-0.8776 2.5049 2.0925 4.3275 3.9975 8.6699 5.9625 13.05 0.4275 0.945 1.5375 1.3652 2.475 0.9452 0.945-0.4275 1.3725-1.5375 0.945-2.4825z" clip-rule="evenodd" fill="#F29F05" fill-rule="evenodd"/>
<path d="m45.365 46.908c-13.868-6.405-28.05-12.105-42.045-18.21-0.9525-0.4125-2.055 0.0225-2.4675 0.9675-0.4125 0.9525 0.01503 2.0549 0.96753 2.4749 13.972 6.09 28.132 11.775 41.97 18.172 0.945 0.4351 2.0551 0.0228 2.4901-0.9147 0.435-0.945 0.0225-2.0549-0.915-2.4899z" clip-rule="evenodd" fill="#F29F05" fill-rule="evenodd"/>
<path d="m41.764 101.86c-12.75 2.048-25.462 4.455-38.235 6.36-1.02 0.158-1.7249 1.11-1.5749 2.13 0.15001 1.027 1.1099 1.732 2.1299 1.582 12.787-1.912 25.515-4.32 38.28-6.375 1.02-0.165 1.7176-1.125 1.5526-2.145-0.165-1.027-1.1251-1.717-2.1526-1.552z" clip-rule="evenodd" fill="#F29F05" fill-rule="evenodd"/>
</svg>