<svg fill="none" viewBox="0 0 38 40" xmlns="http://www.w3.org/2000/svg">
<path d="m4.5959 17.581c1.7735-0.6319 3.6397-1.4718 5.0789-2.6878 1.7093-1.4442 2.4044-3.3043 2.8712-5.2622 0.5993-2.5155 0.8388-5.195 1.5655-7.7146 0.2691-0.93565 0.7869-1.2893 1.0091-1.4463 0.5616-0.39648 1.1293-0.50246 1.6633-0.46271 0.633 0.045865 1.5024 0.28537 2.0742 1.3464 0.0815 0.15187 0.1875 0.38325 0.2589 0.70023 0.0519 0.23238 0.0856 0.95908 0.1406 1.2587 0.1376 0.73793 0.2528 1.4759 0.3608 2.2179 0.3598 2.4696 0.5667 4.5672 1.7032 6.836 1.5421 3.0801 3.0873 4.9646 5.1828 5.7994 2.0262 0.8072 4.4489 0.6554 7.5443 0.0225 0.2946-0.0714 0.586-0.1326 0.8745-0.1825 1.3647-0.2385 2.6694 0.6574 2.9374 2.0171 0.2681 1.3586-0.5993 2.6826-1.9518 2.9812-0.2823 0.0622-0.5606 0.1213-0.8358 0.1753-4.1829 1.0355-9.0253 4.7313-11.839 7.9673-0.8673 0.9979-2.1373 3.7875-3.4327 5.5671-0.9561 1.3127-2.0303 2.1781-2.9324 2.4838-0.6044 0.2059-1.114 0.1744-1.5349 0.0704-0.6115-0.1509-1.1191-0.4822-1.5084-1.0091-0.212-0.2884-0.4088-0.6747-0.5026-1.168-0.0448-0.2375-0.0499-0.8409-0.0489-1.114-0.2639-0.9081-0.587-1.7949-0.8225-2.7112-0.5616-2.1862-1.6634-3.5704-2.9721-5.3989-1.2241-1.7113-2.5389-2.7865-4.4662-3.6447-0.25073-0.0612-2.2739-0.5565-2.9884-0.8409-1.0437-0.4169-1.5411-1.115-1.7215-1.4911-0.30679-0.6381-0.33836-1.1956-0.2772-1.6603 0.090712-0.686 0.39852-1.273 0.94483-1.747 0.33838-0.2945 0.84393-0.581 1.5207-0.7206 0.52286-0.1091 1.91-0.1722 2.1046-0.1814zm11.869-3.5633c0.0938 0.209 0.1937 0.4189 0.2997 0.6309 2.2586 4.5112 4.7843 7.0297 7.8542 8.2517l0.1029 0.0398c-2.0537 1.5248-3.9128 3.2289-5.3336 4.8627-0.5851 0.6727-1.3597 2.0701-2.1964 3.5031-0.7604-2.4716-2.0039-4.2185-3.5674-6.4048-1.1945-1.6685-2.4461-2.9242-3.9841-3.9475 1.1935-0.6125 2.332-1.3301 3.3237-2.1679 1.6511-1.3953 2.7427-3.0118 3.501-4.768z" clip-rule="evenodd" fill="#F29F05" fill-rule="evenodd"/>
</svg>