<svg viewBox="0 0 51 56" xmlns="http://www.w3.org/2000/svg">
<path d="m16.819 51.396c-4.8-1.347-9.8254-2.0265-14.7-2.649-1.05-0.1305-2.0248 0.5978-2.0998 1.6238-0.15 1.0267 0.60044 1.9657 1.5754 2.0962 4.725 0.5993 9.5995 1.2405 14.175 2.5373 0.9751 0.2812 2.0255-0.2978 2.3255-1.2938 0.3-0.9952-0.3002-2.0325-1.2752-2.3145z" clip-rule="evenodd" fill="#F29F05" fill-rule="evenodd"/>
<path d="m31.369 32.299c-7.725-7.8833-16.425-14.752-24-22.847-0.675-0.756-1.875-0.7965-2.625-0.09075-0.75 0.70649-0.8247 1.8945-0.0747 2.6505 7.575 8.118 16.275 15.009 24 22.916 0.75 0.738 1.9497 0.7485 2.6997 0.0225 0.675-0.7252 0.75-1.9132 0-2.6512z" clip-rule="evenodd" fill="#F29F05" fill-rule="evenodd"/>
<path d="m45.846 1.9768c0.225 4.512 0.4495 9.024 0.6745 13.537 0 1.0335 0.9005 1.8315 1.9505 1.7812 1.05-0.051 1.7995-0.9307 1.7995-1.965-0.225-4.5195-0.4495-9.0382-0.6745-13.557-0.075-1.0335-0.9752-1.8263-2.0252-1.77-0.975 0.05625-1.7998 0.94125-1.7248 1.974z" clip-rule="evenodd" fill="#F29F05" fill-rule="evenodd"/>
</svg>