<svg viewBox="0 0 50 49" xmlns="http://www.w3.org/2000/svg">
<path d="m45.334 23.111c-1.5458 6.285-1.4446 12.337-1.6298 18.712-0.036 1.245 0.942 2.2801 2.1832 2.3176 1.242 0.0375 2.2786-0.945 2.3153-2.19 0.1755-6.045 0.0338-11.798 1.5008-17.768 0.297-1.2075-0.4418-2.43-1.6478-2.7225-1.2053-0.3-2.4255 0.4425-2.7217 1.65z" clip-rule="evenodd" fill="#F29F05" fill-rule="evenodd"/>
<path d="m32.202 10.931c-10.486 9.585-20.367 21.915-27.273 34.365-0.60225 1.0875-0.20997 2.4601 0.87603 3.0601s2.457 0.2099 3.0592-0.8776c6.678-12.038 16.234-23.962 26.374-33.225 0.9165-0.84 0.9802-2.265 0.1425-3.18-0.8378-0.915-2.262-0.9825-3.1785-0.1425z" clip-rule="evenodd" fill="#F29F05" fill-rule="evenodd"/>
<path d="m29.546 0.46093c-9.591-1.5825-19.477 1.1175-28.198 4.935-1.1377 0.5025-1.6568 1.83-1.1595 2.9625 0.498 1.14 1.8263 1.6575 2.964 1.1625 7.9425-3.48 16.925-6.06 25.661-4.62 1.2255 0.2025 2.3842-0.62998 2.586-1.8525 0.2025-1.2225-0.6285-2.385-1.8533-2.5875z" clip-rule="evenodd" fill="#F29F05" fill-rule="evenodd"/>
</svg>
