<svg width="32" height="32" viewBox="0 0 32 32" fill="none" xmlns="http://www.w3.org/2000/svg">
<path d="M28 13.3333H4M21.3333 2.66663V7.99996M10.6667 2.66663V7.99996M10.4 29.3333H21.6C23.8402 29.3333 24.9603 29.3333 25.816 28.8973C26.5686 28.5138 27.1805 27.9019 27.564 27.1493C28 26.2936 28 25.1735 28 22.9333V11.7333C28 9.49308 28 8.37298 27.564 7.51733C27.1805 6.76468 26.5686 6.15276 25.816 5.76927C24.9603 5.33329 23.8402 5.33329 21.6 5.33329H10.4C8.15979 5.33329 7.03969 5.33329 6.18404 5.76927C5.43139 6.15276 4.81947 6.76468 4.43597 7.51733C4 8.37298 4 9.49308 4 11.7333V22.9333C4 25.1735 4 26.2936 4.43597 27.1493C4.81947 27.9019 5.43139 28.5138 6.18404 28.8973C7.03969 29.3333 8.15979 29.3333 10.4 29.3333Z" stroke="currentColor" stroke-width="3" stroke-linecap="round" stroke-linejoin="round"/>
</svg>
