<svg width="23" height="24" viewBox="0 0 23 24" fill="none" xmlns="http://www.w3.org/2000/svg">
<path d="M17.3333 8.49993C17.3333 7.9028 17.1055 7.30568 16.6499 6.85008C16.1943 6.39447 15.5972 6.16667 15 6.16667M15 15.5C18.866 15.5 22 12.366 22 8.5C22 4.63401 18.866 1.5 15 1.5C11.134 1.5 8 4.63401 8 8.5C8 8.81929 8.02138 9.13359 8.06278 9.44154C8.13087 9.94804 8.16492 10.2013 8.142 10.3615C8.11813 10.5284 8.08773 10.6184 8.00547 10.7655C7.9265 10.9068 7.78733 11.046 7.50899 11.3243L1.54673 17.2866C1.34496 17.4884 1.24407 17.5893 1.17192 17.707C1.10795 17.8114 1.06081 17.9252 1.03224 18.0442C1 18.1785 1 18.3212 1 18.6065V20.6333C1 21.2867 1 21.6134 1.12716 21.863C1.23901 22.0825 1.41749 22.261 1.63701 22.3728C1.88657 22.5 2.21327 22.5 2.86667 22.5H5.66667V20.1667H8V17.8333H10.3333L12.1757 15.991C12.454 15.7127 12.5932 15.5735 12.7345 15.4945C12.8816 15.4123 12.9716 15.3819 13.1385 15.358C13.2987 15.3351 13.552 15.3691 14.0585 15.4372C14.3664 15.4786 14.6807 15.5 15 15.5Z" stroke="currentColor" stroke-width="2" stroke-linecap="round" stroke-linejoin="round"/>
</svg>
