<svg xmlns="http://www.w3.org/2000/svg" width="18" height="22" viewBox="0 0 18 22" fill="none">
  <path d="M9 11.5C10.6569 11.5 12 10.1569 12 8.5C12 6.84315 10.6569 5.5 9 5.5C7.34315 5.5 6 6.84315 6 8.5C6 10.1569 7.34315 11.5 9 11.5Z" stroke="url(#paint0_linear_186_14559)" stroke-width="2" stroke-linecap="round" stroke-linejoin="round"/>
  <path d="M9 21C11 17 17 14.4183 17 9C17 4.58172 13.4183 1 9 1C4.58172 1 1 4.58172 1 9C1 14.4183 7 17 9 21Z" stroke="url(#paint1_linear_186_14559)" stroke-width="2" stroke-linecap="round" stroke-linejoin="round"/>
  <defs>
    <linearGradient id="paint0_linear_186_14559" x1="17" y1="1" x2="1" y2="1" gradientUnits="userSpaceOnUse">
      <stop stop-color="white"/>
      <stop offset="1" stop-color="white"/>
    </linearGradient>
    <linearGradient id="paint1_linear_186_14559" x1="17" y1="1" x2="1" y2="1" gradientUnits="userSpaceOnUse">
      <stop stop-color="white"/>
      <stop offset="1" stop-color="white"/>
    </linearGradient>
  </defs>
</svg>