<svg width="21" height="24" viewBox="0 0 21 24" fill="none" xmlns="http://www.w3.org/2000/svg">
<path d="M16.3332 9.66667V7.33333C16.3332 4.11167 13.7215 1.5 10.4998 1.5C7.27818 1.5 4.6665 4.11167 4.6665 7.33333V9.66667M10.4998 14.9167V17.25M6.7665 22.5H14.2332C16.1934 22.5 17.1734 22.5 17.9221 22.1185C18.5807 21.783 19.1161 21.2475 19.4517 20.589C19.8332 19.8403 19.8332 18.8602 19.8332 16.9V15.2667C19.8332 13.3065 19.8332 12.3264 19.4517 11.5777C19.1161 10.9191 18.5807 10.3837 17.9221 10.0481C17.1734 9.66667 16.1934 9.66667 14.2332 9.66667H6.7665C4.80632 9.66667 3.82623 9.66667 3.07754 10.0481C2.41897 10.3837 1.88354 10.9191 1.54798 11.5777C1.1665 12.3264 1.1665 13.3065 1.1665 15.2667V16.9C1.1665 18.8602 1.1665 19.8403 1.54798 20.589C1.88354 21.2475 2.41897 21.783 3.07754 22.1185C3.82623 22.5 4.80632 22.5 6.7665 22.5Z" stroke="currentColor" stroke-width="2" stroke-linecap="round" stroke-linejoin="round"/>
</svg>
