<svg width="27" height="22" viewBox="0 0 27 22" fill="none" xmlns="http://www.w3.org/2000/svg">
<path d="M1.8335 5.16663L11.3592 11.8346C12.1306 12.3746 12.5163 12.6446 12.9358 12.7492C13.3064 12.8415 13.694 12.8415 14.0645 12.7492C14.484 12.6446 14.8697 12.3746 15.6411 11.8346L25.1668 5.16663M7.4335 20.3333H19.5668C21.527 20.3333 22.5071 20.3333 23.2558 19.9518C23.9144 19.6163 24.4498 19.0808 24.7854 18.4223C25.1668 17.6736 25.1668 16.6935 25.1668 14.7333V7.26663C25.1668 5.30644 25.1668 4.32635 24.7854 3.57766C24.4498 2.91909 23.9144 2.38366 23.2558 2.0481C22.5071 1.66663 21.527 1.66663 19.5668 1.66663H7.4335C5.47331 1.66663 4.49322 1.66663 3.74453 2.0481C3.08596 2.38366 2.55053 2.91909 2.21497 3.57766C1.8335 4.32635 1.8335 5.30644 1.8335 7.26663V14.7333C1.8335 16.6935 1.8335 17.6736 2.21497 18.4223C2.55053 19.0808 3.08596 19.6163 3.74453 19.9518C4.49322 20.3333 5.47331 20.3333 7.4335 20.3333Z" stroke="#344054" stroke-width="2" stroke-linecap="round" stroke-linejoin="round"/>
</svg>
